<mxfile host="app.diagrams.net" modified="2021-01-05T07:05:40.318Z" agent="5.0 (Windows NT 10.0; Win64; x64) AppleWebKit/537.36 (KHTML, like Gecko) Chrome/87.0.4280.88 Safari/537.36" etag="LB43YgOrOWOEFWEC6QrL" version="14.1.1" type="github">
  <diagram id="hJdredNEwxCyBbmPecLw" name="第 1 页">
    <mxGraphModel dx="1185" dy="635" grid="1" gridSize="10" guides="1" tooltips="1" connect="1" arrows="1" fold="1" page="1" pageScale="1" pageWidth="827" pageHeight="1169" math="0" shadow="0">
      <root>
        <mxCell id="0" />
        <mxCell id="1" parent="0" />
        <mxCell id="q9loGNgbHzg-mi4nU4WG-1" value="上传文件" style="rounded=0;whiteSpace=wrap;html=1;labelPosition=left;verticalLabelPosition=top;align=right;verticalAlign=bottom;" vertex="1" parent="1">
          <mxGeometry x="70" y="60" width="730" height="310" as="geometry" />
        </mxCell>
        <mxCell id="YRhgD83JhJHmWzY8eGKU-1" value="广州系统" style="ellipse;whiteSpace=wrap;html=1;" parent="1" vertex="1">
          <mxGeometry x="100" y="90" width="120" height="80" as="geometry" />
        </mxCell>
        <mxCell id="YRhgD83JhJHmWzY8eGKU-2" value="ED系统" style="ellipse;whiteSpace=wrap;html=1;" parent="1" vertex="1">
          <mxGeometry x="100" y="240" width="120" height="80" as="geometry" />
        </mxCell>
        <mxCell id="YRhgD83JhJHmWzY8eGKU-11" style="edgeStyle=orthogonalEdgeStyle;rounded=0;orthogonalLoop=1;jettySize=auto;html=1;entryX=0;entryY=0.5;entryDx=0;entryDy=0;" parent="1" source="YRhgD83JhJHmWzY8eGKU-3" target="YRhgD83JhJHmWzY8eGKU-6" edge="1">
          <mxGeometry relative="1" as="geometry" />
        </mxCell>
        <mxCell id="YRhgD83JhJHmWzY8eGKU-3" value="WebCenterAPI" style="rounded=1;whiteSpace=wrap;html=1;" parent="1" vertex="1">
          <mxGeometry x="330" y="170" width="120" height="60" as="geometry" />
        </mxCell>
        <mxCell id="YRhgD83JhJHmWzY8eGKU-4" value="文件服务器" style="whiteSpace=wrap;html=1;aspect=fixed;labelPosition=center;verticalLabelPosition=top;align=center;verticalAlign=bottom;" parent="1" vertex="1">
          <mxGeometry x="590" y="130" width="180" height="180" as="geometry" />
        </mxCell>
        <mxCell id="YRhgD83JhJHmWzY8eGKU-6" value="WCF服务" style="rounded=0;whiteSpace=wrap;html=1;" parent="1" vertex="1">
          <mxGeometry x="590" y="250" width="120" height="60" as="geometry" />
        </mxCell>
        <mxCell id="YRhgD83JhJHmWzY8eGKU-9" value="" style="endArrow=classic;html=1;exitX=1;exitY=0.5;exitDx=0;exitDy=0;entryX=-0.007;entryY=0.625;entryDx=0;entryDy=0;entryPerimeter=0;" parent="1" source="YRhgD83JhJHmWzY8eGKU-1" target="YRhgD83JhJHmWzY8eGKU-3" edge="1">
          <mxGeometry width="50" height="50" relative="1" as="geometry">
            <mxPoint x="360" y="330" as="sourcePoint" />
            <mxPoint x="410" y="280" as="targetPoint" />
          </mxGeometry>
        </mxCell>
        <mxCell id="YRhgD83JhJHmWzY8eGKU-10" value="" style="endArrow=classic;html=1;exitX=1;exitY=0.5;exitDx=0;exitDy=0;entryX=-0.035;entryY=0.611;entryDx=0;entryDy=0;entryPerimeter=0;" parent="1" source="YRhgD83JhJHmWzY8eGKU-2" target="YRhgD83JhJHmWzY8eGKU-3" edge="1">
          <mxGeometry width="50" height="50" relative="1" as="geometry">
            <mxPoint x="230" y="140" as="sourcePoint" />
            <mxPoint x="339.1600000000001" y="217.5" as="targetPoint" />
            <Array as="points">
              <mxPoint x="250" y="260" />
            </Array>
          </mxGeometry>
        </mxCell>
        <mxCell id="YRhgD83JhJHmWzY8eGKU-12" value="图片" style="rounded=0;whiteSpace=wrap;html=1;" parent="1" vertex="1">
          <mxGeometry x="630" y="150" width="80" height="40" as="geometry" />
        </mxCell>
        <mxCell id="YRhgD83JhJHmWzY8eGKU-13" value="附件" style="rounded=0;whiteSpace=wrap;html=1;" parent="1" vertex="1">
          <mxGeometry x="630" y="200" width="80" height="40" as="geometry" />
        </mxCell>
        <mxCell id="q9loGNgbHzg-mi4nU4WG-2" value="图片搜索" style="rounded=0;whiteSpace=wrap;html=1;labelPosition=left;verticalLabelPosition=top;align=right;verticalAlign=bottom;" vertex="1" parent="1">
          <mxGeometry x="70" y="470" width="730" height="210" as="geometry" />
        </mxCell>
        <mxCell id="q9loGNgbHzg-mi4nU4WG-3" value="ED系统" style="ellipse;whiteSpace=wrap;html=1;" vertex="1" parent="1">
          <mxGeometry x="120" y="490" width="120" height="70" as="geometry" />
        </mxCell>
        <mxCell id="q9loGNgbHzg-mi4nU4WG-4" value="WebCenterAPI" style="rounded=1;whiteSpace=wrap;html=1;" vertex="1" parent="1">
          <mxGeometry x="330" y="540" width="120" height="60" as="geometry" />
        </mxCell>
        <mxCell id="q9loGNgbHzg-mi4nU4WG-6" value="" style="endArrow=classic;html=1;exitX=1;exitY=0.5;exitDx=0;exitDy=0;entryX=0;entryY=0.5;entryDx=0;entryDy=0;" edge="1" parent="1" source="q9loGNgbHzg-mi4nU4WG-3" target="q9loGNgbHzg-mi4nU4WG-4">
          <mxGeometry width="50" height="50" relative="1" as="geometry">
            <mxPoint x="340" y="530" as="sourcePoint" />
            <mxPoint x="390" y="480" as="targetPoint" />
          </mxGeometry>
        </mxCell>
        <mxCell id="q9loGNgbHzg-mi4nU4WG-7" value="AliyunSDK" style="shape=process;whiteSpace=wrap;html=1;backgroundOutline=1;" vertex="1" parent="1">
          <mxGeometry x="610" y="540" width="120" height="60" as="geometry" />
        </mxCell>
        <mxCell id="q9loGNgbHzg-mi4nU4WG-8" value="" style="endArrow=classic;html=1;exitX=1;exitY=0.5;exitDx=0;exitDy=0;entryX=0;entryY=0.5;entryDx=0;entryDy=0;" edge="1" parent="1" source="q9loGNgbHzg-mi4nU4WG-4" target="q9loGNgbHzg-mi4nU4WG-7">
          <mxGeometry width="50" height="50" relative="1" as="geometry">
            <mxPoint x="340" y="530" as="sourcePoint" />
            <mxPoint x="390" y="480" as="targetPoint" />
          </mxGeometry>
        </mxCell>
      </root>
    </mxGraphModel>
  </diagram>
</mxfile>
